<mxfile host="app.diagrams.net" modified="2022-04-06T14:25:42.745Z" agent="5.0 (Macintosh; Intel Mac OS X 10_15_7) AppleWebKit/537.36 (KHTML, like Gecko) Chrome/99.0.4844.84 Safari/537.36" etag="4oF2Mxjcp38iaopbQ8S5" version="17.4.0" type="github" pages="3">
  <diagram id="ajfxgY_pi_kK0TsLT0ra" name="borrador">
    <mxGraphModel dx="2262" dy="1859" grid="1" gridSize="10" guides="1" tooltips="1" connect="1" arrows="1" fold="1" page="1" pageScale="1" pageWidth="850" pageHeight="1100" math="0" shadow="0">
      <root>
        <mxCell id="0" />
        <mxCell id="1" parent="0" />
        <mxCell id="iwcyCDHlBOQldtlvhSf_-5" value="SalesSource" style="rounded=0;whiteSpace=wrap;html=1;fillColor=none;dashed=1;labelPosition=center;verticalLabelPosition=top;align=center;verticalAlign=bottom;" parent="1" vertex="1">
          <mxGeometry x="-20" y="100" width="810" height="200" as="geometry" />
        </mxCell>
        <mxCell id="iwcyCDHlBOQldtlvhSf_-4" value="" style="edgeStyle=orthogonalEdgeStyle;rounded=0;orthogonalLoop=1;jettySize=auto;html=1;" parent="1" source="iwcyCDHlBOQldtlvhSf_-1" target="iwcyCDHlBOQldtlvhSf_-3" edge="1">
          <mxGeometry relative="1" as="geometry" />
        </mxCell>
        <mxCell id="iwcyCDHlBOQldtlvhSf_-3" value="Mercado libre" style="rounded=0;whiteSpace=wrap;html=1;" parent="1" vertex="1">
          <mxGeometry x="10" y="170" width="150" height="60" as="geometry" />
        </mxCell>
        <mxCell id="iwcyCDHlBOQldtlvhSf_-6" value="olimpicaSWL1" style="rounded=0;whiteSpace=wrap;html=1;" parent="1" vertex="1">
          <mxGeometry x="250" y="170" width="150" height="60" as="geometry" />
        </mxCell>
        <mxCell id="iwcyCDHlBOQldtlvhSf_-12" value="Shopify" style="rounded=0;whiteSpace=wrap;html=1;" parent="1" vertex="1">
          <mxGeometry x="440" y="170" width="150" height="60" as="geometry" />
        </mxCell>
        <mxCell id="dKyvOB0mPr_iWvuyZnvj-2" value="" style="group" parent="1" vertex="1" connectable="0">
          <mxGeometry x="250" y="400" width="150" height="80" as="geometry" />
        </mxCell>
        <mxCell id="iwcyCDHlBOQldtlvhSf_-1" value="Olimipica(storeConfig)" style="rounded=0;whiteSpace=wrap;html=1;" parent="dKyvOB0mPr_iWvuyZnvj-2" vertex="1">
          <mxGeometry width="150" height="60" as="geometry" />
        </mxCell>
        <mxCell id="dKyvOB0mPr_iWvuyZnvj-1" value="storeConfig" style="text;html=1;align=center;verticalAlign=middle;resizable=0;points=[];autosize=1;strokeColor=none;fillColor=none;" parent="dKyvOB0mPr_iWvuyZnvj-2" vertex="1">
          <mxGeometry x="70" y="60" width="80" height="20" as="geometry" />
        </mxCell>
        <mxCell id="HlVFCl1vAi907uhXWEDX-1" style="edgeStyle=orthogonalEdgeStyle;rounded=0;orthogonalLoop=1;jettySize=auto;html=1;entryX=0.5;entryY=1;entryDx=0;entryDy=0;" parent="1" source="iwcyCDHlBOQldtlvhSf_-1" target="iwcyCDHlBOQldtlvhSf_-6" edge="1">
          <mxGeometry relative="1" as="geometry" />
        </mxCell>
        <mxCell id="HlVFCl1vAi907uhXWEDX-2" style="edgeStyle=orthogonalEdgeStyle;rounded=0;orthogonalLoop=1;jettySize=auto;html=1;exitX=1;exitY=0.5;exitDx=0;exitDy=0;entryX=0.5;entryY=1;entryDx=0;entryDy=0;" parent="1" source="iwcyCDHlBOQldtlvhSf_-1" target="iwcyCDHlBOQldtlvhSf_-12" edge="1">
          <mxGeometry relative="1" as="geometry" />
        </mxCell>
        <mxCell id="993oS0SQBWHvUk9vk6mZ-1" value="VtexIO" style="rounded=0;whiteSpace=wrap;html=1;" parent="1" vertex="1">
          <mxGeometry x="620" y="170" width="150" height="60" as="geometry" />
        </mxCell>
        <mxCell id="993oS0SQBWHvUk9vk6mZ-2" style="edgeStyle=orthogonalEdgeStyle;rounded=0;orthogonalLoop=1;jettySize=auto;html=1;fontFamily=Helvetica;fontSize=12;fontColor=default;" parent="1" source="iwcyCDHlBOQldtlvhSf_-1" target="993oS0SQBWHvUk9vk6mZ-1" edge="1">
          <mxGeometry relative="1" as="geometry" />
        </mxCell>
        <mxCell id="O9qBmJmx6Io42hJe1fUK-1" value="SalesSource" style="rounded=0;whiteSpace=wrap;html=1;fillColor=none;dashed=1;labelPosition=center;verticalLabelPosition=top;align=center;verticalAlign=bottom;" parent="1" vertex="1">
          <mxGeometry x="880" y="100" width="810" height="200" as="geometry" />
        </mxCell>
        <mxCell id="O9qBmJmx6Io42hJe1fUK-2" value="" style="edgeStyle=orthogonalEdgeStyle;rounded=0;orthogonalLoop=1;jettySize=auto;html=1;" parent="1" source="O9qBmJmx6Io42hJe1fUK-7" target="O9qBmJmx6Io42hJe1fUK-3" edge="1">
          <mxGeometry relative="1" as="geometry" />
        </mxCell>
        <mxCell id="O9qBmJmx6Io42hJe1fUK-3" value="Mercado libre" style="rounded=0;whiteSpace=wrap;html=1;" parent="1" vertex="1">
          <mxGeometry x="910" y="170" width="150" height="60" as="geometry" />
        </mxCell>
        <mxCell id="O9qBmJmx6Io42hJe1fUK-4" value="Bodega2" style="rounded=0;whiteSpace=wrap;html=1;" parent="1" vertex="1">
          <mxGeometry x="1150" y="170" width="150" height="60" as="geometry" />
        </mxCell>
        <mxCell id="O9qBmJmx6Io42hJe1fUK-5" value="Bodega3" style="rounded=0;whiteSpace=wrap;html=1;" parent="1" vertex="1">
          <mxGeometry x="1340" y="170" width="150" height="60" as="geometry" />
        </mxCell>
        <mxCell id="O9qBmJmx6Io42hJe1fUK-6" value="" style="group" parent="1" vertex="1" connectable="0">
          <mxGeometry x="1150" y="400" width="150" height="80" as="geometry" />
        </mxCell>
        <mxCell id="O9qBmJmx6Io42hJe1fUK-7" value="Bodega" style="rounded=0;whiteSpace=wrap;html=1;" parent="O9qBmJmx6Io42hJe1fUK-6" vertex="1">
          <mxGeometry width="150" height="60" as="geometry" />
        </mxCell>
        <mxCell id="O9qBmJmx6Io42hJe1fUK-8" value="storeConfig" style="text;html=1;align=center;verticalAlign=middle;resizable=0;points=[];autosize=1;strokeColor=none;fillColor=none;" parent="O9qBmJmx6Io42hJe1fUK-6" vertex="1">
          <mxGeometry x="70" y="60" width="80" height="20" as="geometry" />
        </mxCell>
        <mxCell id="O9qBmJmx6Io42hJe1fUK-9" style="edgeStyle=orthogonalEdgeStyle;rounded=0;orthogonalLoop=1;jettySize=auto;html=1;entryX=0.5;entryY=1;entryDx=0;entryDy=0;" parent="1" source="O9qBmJmx6Io42hJe1fUK-7" target="O9qBmJmx6Io42hJe1fUK-4" edge="1">
          <mxGeometry relative="1" as="geometry" />
        </mxCell>
        <mxCell id="O9qBmJmx6Io42hJe1fUK-10" style="edgeStyle=orthogonalEdgeStyle;rounded=0;orthogonalLoop=1;jettySize=auto;html=1;exitX=1;exitY=0.5;exitDx=0;exitDy=0;entryX=0.5;entryY=1;entryDx=0;entryDy=0;" parent="1" source="O9qBmJmx6Io42hJe1fUK-7" target="O9qBmJmx6Io42hJe1fUK-5" edge="1">
          <mxGeometry relative="1" as="geometry" />
        </mxCell>
        <mxCell id="O9qBmJmx6Io42hJe1fUK-11" value="Bodega4" style="rounded=0;whiteSpace=wrap;html=1;" parent="1" vertex="1">
          <mxGeometry x="1520" y="170" width="150" height="60" as="geometry" />
        </mxCell>
        <mxCell id="O9qBmJmx6Io42hJe1fUK-12" style="edgeStyle=orthogonalEdgeStyle;rounded=0;orthogonalLoop=1;jettySize=auto;html=1;fontFamily=Helvetica;fontSize=12;fontColor=default;" parent="1" source="O9qBmJmx6Io42hJe1fUK-7" target="O9qBmJmx6Io42hJe1fUK-11" edge="1">
          <mxGeometry relative="1" as="geometry" />
        </mxCell>
        <mxCell id="O9qBmJmx6Io42hJe1fUK-14" value="" style="edgeStyle=orthogonalEdgeStyle;rounded=0;orthogonalLoop=1;jettySize=auto;html=1;fontFamily=Helvetica;fontSize=12;fontColor=default;" parent="1" source="O9qBmJmx6Io42hJe1fUK-13" target="O9qBmJmx6Io42hJe1fUK-8" edge="1">
          <mxGeometry relative="1" as="geometry" />
        </mxCell>
        <mxCell id="O9qBmJmx6Io42hJe1fUK-13" value="Puntos de despacho donde estan los pickers" style="shape=note2;boundedLbl=1;whiteSpace=wrap;html=1;size=25;verticalAlign=top;align=center;dashed=1;fontFamily=Helvetica;fontSize=12;fontColor=default;strokeColor=default;fillColor=none;collapsible=1;" parent="1" vertex="1">
          <mxGeometry x="1080" y="540" width="260" height="70" as="geometry">
            <mxRectangle x="1080" y="540" width="270" height="60" as="alternateBounds" />
          </mxGeometry>
        </mxCell>
        <mxCell id="2ZNYTgii9kRGebYxcrP--2" style="edgeStyle=orthogonalEdgeStyle;rounded=0;orthogonalLoop=1;jettySize=auto;html=1;fontFamily=Helvetica;fontSize=12;fontColor=default;entryX=0.75;entryY=0;entryDx=0;entryDy=0;" parent="1" source="2ZNYTgii9kRGebYxcrP--1" target="iwcyCDHlBOQldtlvhSf_-5" edge="1">
          <mxGeometry relative="1" as="geometry" />
        </mxCell>
        <mxCell id="2ZNYTgii9kRGebYxcrP--1" value="Cada orden que llega va tener asignado un saleSource" style="shape=note2;boundedLbl=1;whiteSpace=wrap;html=1;size=25;verticalAlign=top;align=center;dashed=1;fontFamily=Helvetica;fontSize=12;fontColor=default;strokeColor=default;fillColor=none;collapsible=1;" parent="1" vertex="1">
          <mxGeometry x="305" y="-90" width="160" height="90" as="geometry">
            <mxRectangle x="315" y="-90" width="140" height="30" as="alternateBounds" />
          </mxGeometry>
        </mxCell>
      </root>
    </mxGraphModel>
  </diagram>
  <diagram id="M145viX8zpj3jMg64ixI" name="Schemas">
    <mxGraphModel dx="1412" dy="759" grid="0" gridSize="10" guides="1" tooltips="1" connect="1" arrows="1" fold="1" page="1" pageScale="1" pageWidth="850" pageHeight="1100" math="0" shadow="0">
      <root>
        <mxCell id="0" />
        <mxCell id="1" parent="0" />
        <mxCell id="pUIqE8YCtDBZQ3QT18fA-20" value="&lt;b&gt;type&lt;/b&gt; = enum (puntoFisico, puntoVirtual, bodega)&lt;br&gt;&lt;br&gt;&lt;b&gt;configuration =&lt;/b&gt; Es el&amp;nbsp;storeConfigId o puede tener varios storeConfigId o su proposito es para otro fin" style="shape=note2;boundedLbl=1;whiteSpace=wrap;html=1;size=18;verticalAlign=top;align=left;dashed=1;fillColor=none;noLabel=0;collapsible=1;dropTarget=1;recursiveResize=1;expand=1;movable=1;resizable=1;resizeWidth=0;resizeHeight=0;shadow=0;" parent="1" vertex="1">
          <mxGeometry x="20" y="214" width="161" height="147" as="geometry">
            <mxRectangle x="20" y="214" width="161" height="18" as="alternateBounds" />
          </mxGeometry>
        </mxCell>
        <mxCell id="gn-NRDD6qLv9KG4v7ukl-1" value="SalesSource" style="swimlane;childLayout=stackLayout;horizontal=1;startSize=30;horizontalStack=0;rounded=1;fontSize=14;fontStyle=0;strokeWidth=2;resizeParent=0;resizeLast=1;shadow=0;dashed=0;align=center;" parent="1" vertex="1">
          <mxGeometry x="20" y="70" width="160" height="120" as="geometry">
            <mxRectangle x="20" y="70" width="110" height="30" as="alternateBounds" />
          </mxGeometry>
        </mxCell>
        <mxCell id="gn-NRDD6qLv9KG4v7ukl-2" value="* id s&#xa;-name s&#xa;-configuration s&#xa;-type ?" style="align=left;strokeColor=none;fillColor=none;spacingLeft=4;fontSize=12;verticalAlign=top;resizable=0;rotatable=0;part=1;" parent="gn-NRDD6qLv9KG4v7ukl-1" vertex="1">
          <mxGeometry y="30" width="160" height="90" as="geometry" />
        </mxCell>
        <mxCell id="eg_KidXKv0t1IyUkm34Z-1" value="StoreConfig" style="swimlane;childLayout=stackLayout;horizontal=1;startSize=30;horizontalStack=0;rounded=1;fontSize=14;fontStyle=0;strokeWidth=2;resizeParent=0;resizeLast=1;shadow=0;dashed=0;align=center;fillColor=none;arcSize=17;" parent="1" vertex="1">
          <mxGeometry x="230" y="70" width="200" height="360" as="geometry">
            <mxRectangle x="230" y="70" width="101" height="30" as="alternateBounds" />
          </mxGeometry>
        </mxCell>
        <mxCell id="eg_KidXKv0t1IyUkm34Z-2" value="- current ?&#xa;- sources: string[] &#xa;- schedules ?&#xa;- type ?&#xa;- capacityMgmnt ?&#xa;&#xa;- id&#xa;- categories&#xa;- enableItemChangeOrder&#xa;- mobileAppConfig&#xa;- onBoardingSetup&#xa;- packages&#xa;- packingPath&#xa;- pickerAssignation&#xa;- printing&#xa;* seller&#xa;- tracking&#xa;- ordersChangesValueThreshold&#xa;- sendItemChangesToOMS&#xa;- hooksConfiguration&#xa;- license" style="align=left;strokeColor=none;fillColor=none;spacingLeft=4;fontSize=12;verticalAlign=top;resizable=0;rotatable=0;part=1;dashed=1;" parent="eg_KidXKv0t1IyUkm34Z-1" vertex="1">
          <mxGeometry y="30" width="200" height="330" as="geometry" />
        </mxCell>
        <mxCell id="eg_KidXKv0t1IyUkm34Z-4" value="WorkSheet" style="swimlane;childLayout=stackLayout;horizontal=1;startSize=30;horizontalStack=0;rounded=1;fontSize=14;fontStyle=0;strokeWidth=2;resizeParent=0;resizeLast=1;shadow=0;dashed=0;align=center;fillColor=none;" parent="1" vertex="1">
          <mxGeometry x="750" y="70" width="140" height="120" as="geometry" />
        </mxCell>
        <mxCell id="eg_KidXKv0t1IyUkm34Z-5" value="*id&#xa;-items&#xa;-picker&#xa;-workSchedule&#xa;-capacity" style="align=left;strokeColor=none;fillColor=none;spacingLeft=4;fontSize=12;verticalAlign=top;resizable=0;rotatable=0;part=1;dashed=1;" parent="eg_KidXKv0t1IyUkm34Z-4" vertex="1">
          <mxGeometry y="30" width="140" height="90" as="geometry" />
        </mxCell>
        <mxCell id="eg_KidXKv0t1IyUkm34Z-6" value="packing" style="swimlane;childLayout=stackLayout;horizontal=1;startSize=30;horizontalStack=0;rounded=1;fontSize=14;fontStyle=0;strokeWidth=2;resizeParent=0;resizeLast=1;shadow=0;dashed=0;align=center;fillColor=none;" parent="1" vertex="1">
          <mxGeometry x="950" y="70" width="160" height="140" as="geometry" />
        </mxCell>
        <mxCell id="eg_KidXKv0t1IyUkm34Z-7" value="* id&#xa;- enveloped&#xa;- envelopedType&#xa;- items&#xa;- labels&#xa;- category&#xa;- types" style="align=left;strokeColor=none;fillColor=none;spacingLeft=4;fontSize=12;verticalAlign=top;resizable=0;rotatable=0;part=1;dashed=1;" parent="eg_KidXKv0t1IyUkm34Z-6" vertex="1">
          <mxGeometry y="30" width="160" height="110" as="geometry" />
        </mxCell>
        <mxCell id="dIg3Mwuu4QZo3uDkFWie-1" value="Order" style="swimlane;childLayout=stackLayout;horizontal=1;startSize=31;horizontalStack=0;rounded=1;fontSize=14;fontStyle=0;strokeWidth=2;resizeParent=0;resizeLast=1;shadow=0;dashed=0;align=center;arcSize=20;" parent="1" vertex="1">
          <mxGeometry x="510" y="70" width="200" height="790" as="geometry">
            <mxRectangle x="50" y="40" width="110" height="30" as="alternateBounds" />
          </mxGeometry>
        </mxCell>
        <mxCell id="dIg3Mwuu4QZo3uDkFWie-2" value="- customer&#xa;- payment&#xa;- items&#xa;- shipping&#xa;- invoice&#xa;- saleSourceId&#xa;&#xa;* orderId&#xa;- id&#xa;- clientName&#xa;- clientProfileData&#xa;- comments&#xa;- courierName&#xa;- creationDate&#xa;- customData&#xa;- deliveryChannel&#xa;- expedition&#xa;- fulfillment&#xa;- fulfillmentTotals&#xa;- historical&#xa;- hostname&#xa;- invoiceData&#xa;- items&#xa;- itemsCategories&#xa;- itemsCategoriesIds&#xa;- isOrderSplit&#xa;- marketingData&#xa;- lastChange&#xa;- marketplace&#xa;- marketplaceOrderId&#xa;- openTextField&#xa;- orderAssignment&#xa;- orderItemsCount&#xa;- orderNotes&#xa;- orderTotalValue&#xa;- packages&#xa;- packageAttachment&#xa;- packingPath&#xa;- payment&#xa;- paymentMethodsName&#xa;- pickedItems&#xa;- pickerId&#xa;- pickingPriority&#xa;- rejectedItems&#xa;- salesChannel&#xa;- status&#xa;- sequence&#xa;- sellers&#xa;- shippingData&#xa;- shippingEstimatedDateMin&#xa;- storePreferencesData&#xa;- totals&#xa;- value" style="align=left;strokeColor=none;fillColor=none;spacingLeft=4;fontSize=12;verticalAlign=top;resizable=0;rotatable=0;part=1;" parent="dIg3Mwuu4QZo3uDkFWie-1" vertex="1">
          <mxGeometry y="31" width="200" height="759" as="geometry" />
        </mxCell>
        <mxCell id="oDcszfMa276tXMTBAose-5" value="&lt;b&gt;current&lt;/b&gt; = q dato representa?&lt;br&gt;&lt;b&gt;shedules: &lt;/b&gt;formato para los shefules ?&lt;br&gt;&lt;b&gt;type&lt;/b&gt;: Que tipos van a existir?&lt;br&gt;&lt;b&gt;capacityMgmnt &lt;/b&gt;= Que representa en el flujo&lt;br&gt;&lt;br&gt;Va tener una copia similar a la configuracion actual?" style="shape=note2;boundedLbl=1;whiteSpace=wrap;html=1;size=18;verticalAlign=top;align=left;dashed=1;fillColor=none;noLabel=0;collapsible=1;dropTarget=1;recursiveResize=1;expand=1;movable=1;resizable=1;resizeWidth=0;resizeHeight=0;shadow=0;" parent="1" vertex="1">
          <mxGeometry x="230" y="463" width="197" height="225" as="geometry">
            <mxRectangle x="20" y="214" width="161" height="18" as="alternateBounds" />
          </mxGeometry>
        </mxCell>
        <mxCell id="oDcszfMa276tXMTBAose-10" value="&lt;b&gt;saleSourceId&amp;nbsp;&lt;/b&gt;= Que representa en el flujo&lt;br&gt;&lt;br&gt;Va tener una copia similar a la configuracion actual?" style="shape=note2;boundedLbl=1;whiteSpace=wrap;html=1;size=18;verticalAlign=top;align=left;dashed=1;fillColor=none;noLabel=0;collapsible=1;dropTarget=1;recursiveResize=1;expand=1;movable=1;resizable=1;resizeWidth=0;resizeHeight=0;shadow=0;" parent="1" vertex="1">
          <mxGeometry x="510" y="916" width="197" height="225" as="geometry">
            <mxRectangle x="20" y="214" width="161" height="18" as="alternateBounds" />
          </mxGeometry>
        </mxCell>
      </root>
    </mxGraphModel>
  </diagram>
  <diagram id="v5Gut7tsNuVfN4aBiD40" name="picking multiple">
    <mxGraphModel dx="1046" dy="562" grid="1" gridSize="10" guides="1" tooltips="1" connect="1" arrows="1" fold="1" page="1" pageScale="1" pageWidth="850" pageHeight="1100" math="0" shadow="0">
      <root>
        <mxCell id="0" />
        <mxCell id="1" parent="0" />
        <mxCell id="t-savaK0GB2YnFAMrqyL-5" value="Pool" style="swimlane;childLayout=stackLayout;resizeParent=1;resizeParentMax=0;horizontal=1;startSize=20;horizontalStack=0;" parent="1" vertex="1">
          <mxGeometry x="80" y="280" width="730" height="445" as="geometry" />
        </mxCell>
        <mxCell id="t-savaK0GB2YnFAMrqyL-6" value="Proxy" style="swimlane;startSize=20;horizontal=0;" parent="t-savaK0GB2YnFAMrqyL-5" vertex="1">
          <mxGeometry y="20" width="730" height="120" as="geometry" />
        </mxCell>
        <mxCell id="3wbonyUv9h0cjyeow8BZ-3" style="edgeStyle=orthogonalEdgeStyle;rounded=0;orthogonalLoop=1;jettySize=auto;html=1;" parent="t-savaK0GB2YnFAMrqyL-6" source="3wbonyUv9h0cjyeow8BZ-2" target="3wbonyUv9h0cjyeow8BZ-1" edge="1">
          <mxGeometry relative="1" as="geometry" />
        </mxCell>
        <mxCell id="3wbonyUv9h0cjyeow8BZ-2" value="" style="ellipse;whiteSpace=wrap;html=1;aspect=fixed;" parent="t-savaK0GB2YnFAMrqyL-6" vertex="1">
          <mxGeometry x="50" y="45" width="30" height="30" as="geometry" />
        </mxCell>
        <mxCell id="3wbonyUv9h0cjyeow8BZ-1" value="Proxy en cola la ordeb" style="rounded=0;whiteSpace=wrap;html=1;" parent="t-savaK0GB2YnFAMrqyL-6" vertex="1">
          <mxGeometry x="110" y="35" width="100" height="50" as="geometry" />
        </mxCell>
        <mxCell id="t-savaK0GB2YnFAMrqyL-7" value="Backend-pickpack" style="swimlane;startSize=20;horizontal=0;" parent="t-savaK0GB2YnFAMrqyL-5" vertex="1">
          <mxGeometry y="140" width="730" height="185" as="geometry" />
        </mxCell>
        <mxCell id="3wbonyUv9h0cjyeow8BZ-7" value="" style="group" parent="t-savaK0GB2YnFAMrqyL-7" vertex="1" connectable="0">
          <mxGeometry x="100" y="45" width="110" height="80" as="geometry" />
        </mxCell>
        <mxCell id="3wbonyUv9h0cjyeow8BZ-4" value="Recibe la ordern de la cola" style="rounded=0;whiteSpace=wrap;html=1;" parent="3wbonyUv9h0cjyeow8BZ-7" vertex="1">
          <mxGeometry x="10" width="100" height="50" as="geometry" />
        </mxCell>
        <mxCell id="3wbonyUv9h0cjyeow8BZ-6" value="lambdaSerializer" style="text;html=1;strokeColor=none;fillColor=none;align=center;verticalAlign=middle;whiteSpace=wrap;rounded=0;fontColor=#999999;" parent="3wbonyUv9h0cjyeow8BZ-7" vertex="1">
          <mxGeometry y="50" width="110" height="30" as="geometry" />
        </mxCell>
        <mxCell id="3wbonyUv9h0cjyeow8BZ-8" value="Guarda la orden en dynamoDB" style="rounded=0;whiteSpace=wrap;html=1;" parent="t-savaK0GB2YnFAMrqyL-7" vertex="1">
          <mxGeometry x="260" y="45" width="100" height="50" as="geometry" />
        </mxCell>
        <mxCell id="3wbonyUv9h0cjyeow8BZ-9" value="" style="edgeStyle=orthogonalEdgeStyle;rounded=0;orthogonalLoop=1;jettySize=auto;html=1;fontColor=#999999;" parent="t-savaK0GB2YnFAMrqyL-7" source="3wbonyUv9h0cjyeow8BZ-4" target="3wbonyUv9h0cjyeow8BZ-8" edge="1">
          <mxGeometry relative="1" as="geometry" />
        </mxCell>
        <mxCell id="3wbonyUv9h0cjyeow8BZ-5" value="" style="edgeStyle=orthogonalEdgeStyle;rounded=0;orthogonalLoop=1;jettySize=auto;html=1;" parent="t-savaK0GB2YnFAMrqyL-5" source="3wbonyUv9h0cjyeow8BZ-1" target="3wbonyUv9h0cjyeow8BZ-4" edge="1">
          <mxGeometry relative="1" as="geometry" />
        </mxCell>
        <mxCell id="3wbonyUv9h0cjyeow8BZ-10" value="AWS DynamoDB" style="swimlane;startSize=20;horizontal=0;" parent="t-savaK0GB2YnFAMrqyL-5" vertex="1">
          <mxGeometry y="325" width="730" height="120" as="geometry" />
        </mxCell>
        <mxCell id="3wbonyUv9h0cjyeow8BZ-13" value="Guarda la orden en&amp;nbsp;" style="rounded=0;whiteSpace=wrap;html=1;" parent="3wbonyUv9h0cjyeow8BZ-10" vertex="1">
          <mxGeometry x="260" y="35" width="100" height="50" as="geometry" />
        </mxCell>
        <mxCell id="3wbonyUv9h0cjyeow8BZ-14" style="edgeStyle=orthogonalEdgeStyle;rounded=0;orthogonalLoop=1;jettySize=auto;html=1;fontColor=#999999;" parent="t-savaK0GB2YnFAMrqyL-5" source="3wbonyUv9h0cjyeow8BZ-8" target="3wbonyUv9h0cjyeow8BZ-13" edge="1">
          <mxGeometry relative="1" as="geometry" />
        </mxCell>
      </root>
    </mxGraphModel>
  </diagram>
</mxfile>
